# xmcd CD database file
#
# Track frame offsets:
#	150
#	21235
#	40211
#	55267
#	76253
#	95959
#
# Disc length: 1647 seconds
#
# Revision: 0
# Processed by: cddbd v1.5.2PL0 Copyright (c) Steve Scherf et al.
# Submitted via: CDex 2.06
#
DISCID=48066d06
DTITLE=Bridget Pross - Long Distance Traveller
DYEAR=2007
DGENRE=Country
TTITLE0=So Sexy
TTITLE1=Better Than You
TTITLE2=Pullin Away
TTITLE3=Irreplaceable
TTITLE4=Davy Crockett
TTITLE5=Walk Away
EXTD=YEAR: 2007
EXTT0=
EXTT1=
EXTT2=
EXTT3=
EXTT4=
EXTT5=
PLAYORDER=
